<svg xmlns="http://www.w3.org/2000/svg" width="366.667" height="377.333" viewBox="0 0 275 283" preserveAspectRatio="xMidYMid meet" xmlns:v="https://vecta.io/nano"><path d="M126.5 25.6c-21.2 3.1-35.8 8.5-52.5 19.5C64.9 51 46.5 69.8 39.7 80c-9.5 14.3-16.4 32.1-18.7 47.5-1.3 9.1-1.3 31.2 0 39.5 3.3 20.6 12.4 41.2 25.1 56.4 9 10.7 23.4 23.7 30.7 27.6 2.6 1.4 5.8 3.3 7.2 4.2 4.4 2.9 16.7 7.8 26.8 10.5 8.6 2.4 11.6 2.7 26.2 2.7 10.6 0 18.1-.4 21-1.2 23.9-6.9 35.9-12.6 51.5-24.8 25.4-19.8 40.3-44.1 46.9-76.6 2.2-10.7 2.1-14.4-.4-15.1-2.4-.6-3.4.5-5.5 6.8-3.2 9.6-12.6 27.1-18.2 34-3.1 3.9-8.1 9-11 11.5l-6.6 5.6c-7.9 7-24.9 13.6-39.5 15.5-23.7 3-51.3-7.3-68.5-25.5-6.1-6.5-14.6-19.3-18-27.3-7.4-17.5-7.5-43.6-.2-62.3 12.3-31.5 43.6-54.6 76.5-56.7 18.5-1.1 34.2 3.5 59.3 17.7 3.2 1.7 6.1 3 6.4 2.6.3-.3-1.3-3.4-3.6-6.8-10.2-15.5-39.2-32-67.6-38.3-6.2-1.4-27.8-2.7-33-1.9zM190.8 85c-13.1 4-16 19.7-5 27 5.5 3.7 10.9 4 15.9.9 4.3-2.7 8.3-8.9 8.3-12.9 0-9.3-10.6-17.6-19.2-15zM125 113c-1.1 1.1-2 2.8-2 3.8 0 4.2 5.4 5.7 8.4 2.3 1.6-1.8 1.6-2.1.1-4.4-2.3-3.5-4.2-4-6.5-1.7zm87.4 28.9c-4.1 2.5-7.4 6.8-7.4 9.8 0 2.8 7.3 11.1 10.6 11.9 3.1.8 7.3-1.9 10.7-6.8 3.5-5 3.1-7.7-2.2-13-4.3-4.3-7.1-4.7-11.7-1.9zm-73.6 10.8c-.8 1-2.2 3.1-2.9 4.7-1 2.1-2.5 3.3-5.4 4-6.1 1.7-5.8 7.6.4 7.6 3.4 0 4.5.8 6.5 4.7 2.4 4.7 4.4 4.4 8.4-1.3 1.3-1.9 3.4-3.4 5.1-3.7 5.3-1.1 5.1-6.7-.4-8.1-1.6-.4-2.7-1.8-3.5-4.1-1.7-5.2-5.5-6.9-8.2-3.8zm39.4 27.9c-2.8 2-2.8 5.5.1 8.2 3.3 3.1 6.1 2.8 8.5-1 1.9-2.9 1.9-3.4.6-6-1.7-3.2-5.6-3.8-9.2-1.2z" fill="#1a2a3a"/></svg>