<svg xmlns="http://www.w3.org/2000/svg" width="424" height="432" viewBox="0 0 318 324" preserveAspectRatio="xMidYMid meet" fill="#f0b73c" xmlns:v="https://vecta.io/nano"><use href="#A"/><path d="M107.5 35.5c-1.5 1.4-2.5 3.6-2.5 5.3 0 2.5 3.7 11.6 7.1 17.6.6 1.1 2 4.4 3 7.5 3.3 9.6 8.2 12.6 12.7 7.8 3.3-3.5 2.8-7-3.1-19.8-1.3-3-3.2-7.7-4.1-10.6-3.3-10-8.1-12.9-13.1-7.8zm95.2 1.7c-3.5 4.6-12.7 27.4-12.7 31.4 0 3.3 3.6 7.4 6.7 7.4 2 0 6-4.6 6.8-7.8.3-1.5 2.8-7.5 5.5-13.5 6.4-13.9 6.6-14.7 4-18-3.1-3.9-7.2-3.7-10.3.5z"/><use href="#B"/><path d="M246.9 60.8c-1.4.9-4.3 3.7-6.5 6.2l-5.5 6c-.9.8-4.6 4.7-8.3 8.7-5.5 6.1-6.6 7.8-6.6 10.8 0 5.8 5 9.2 9.9 6.6 1-.6 3.8-3.6 6.2-6.8s4.9-6.3 5.4-6.9c.6-.6 2.8-3.2 5-5.9l6.6-7.9c4.1-4.8 4.4-7.2 1.5-10.1-3-3-4.2-3.1-7.7-.7zm-95.8 26.3c-16.3 1.9-31.7 9.5-44.2 21.9-8.5 8.4-13.4 15.5-16.8 24.5-1.2 3.3-2.7 7-3.2 8.3-1.9 4.8-2.9 20.1-2 28.7 2.2 19.2 9.2 33.7 22.6 47.1 28.1 27.9 71.6 29.5 101.3 3.6 18.1-15.7 28.3-39.2 26.9-62-2.7-44.1-41.4-77.2-84.6-72.1zm15.2 12.6c.4.2.7 2 .7 4v3.5l-6.2-.7c-7.2-.8-9.9-2.6-8.2-5.3s10.1-3.6 13.7-1.5zm17.8 2.9c3.5 1.8 4.3 4.1 2.4 7s-1.5 2.9-7.5.3c-5.4-2.3-6.4-3.8-5-7.5.9-2.3 1.4-2.5 4.3-1.9 1.7.4 4.4 1.3 5.8 2.1zm18.9 11.3c3.2 3.1 4.1 4.5 3.8 6.7-.5 4.5-3 5.2-7.8 2-5.1-3.3-6.8-6.6-5.2-10.1 1.6-3.6 4.5-3.1 9.2 1.4zm10.5 16.3c1.7.7 3.6 3.4 5.5 7.4 3.3 6.8 3.8 11.5 1.5 13.4-2 1.7-6-.9-6.9-4.6-.4-1.4-2-5.4-3.6-8.7-2.1-4.5-2.6-6.5-1.8-7.4 1.3-1.6 2-1.6 5.3-.1zM31.6 102.9c-1.1 1.2-1.6 3.1-1.4 5.2.3 3.8-.2 3.4 18.8 14.2 20.3 11.5 19.9 11.3 22.9 9.6 3.4-1.9 4.8-6 3.3-9.4-.9-1.8-4.9-4.3-15.9-9.7-8.2-3.9-16.5-8.2-18.5-9.5-4.6-2.8-6.9-2.9-9.2-.4zm247.8-.9c-1.1 1.1-21.7 12.5-28.5 15.8-7.7 3.7-9 11.4-2.4 14.4 2.1 1 3.2.7 8.2-2.4 6.1-3.8 12.1-7.2 16.3-9.4 1.4-.8 5.4-3.3 9-5.6 5.6-3.7 6.5-4.8 6.8-7.6.2-1.8-.2-4-.9-4.8-1.3-1.6-7-1.9-8.5-.4zM269 153.7c-15.4.3-16.6.5-18.2 2.4-2.2 2.6-2.3 5.8-.2 8.7 1.5 2.2 1.9 2.2 23.2 2.2 25.1 0 26.2-.3 26.2-7 0-3.4-.4-4.2-3-5.5-1.6-.8-4.8-1.4-7.2-1.3a843.98 843.98 0 0 1-20.8.5zm-231 3c-15.4.3-16.6.5-18.3 2.4-2.2 2.7-2.2 6.1.1 8.8 1.6 1.9 2.8 2 22.9 2.2 24.7.3 26.3-.2 26.3-7.1 0-3.4-.4-4.2-3-5.5-1.6-.8-4.8-1.4-7.2-1.3a843.98 843.98 0 0 1-20.8.5zM62.9 196l-18.5 10c-13.8 7.4-16.2 9.8-14.5 14.3 1.3 3.4 5.7 5.4 8.3 3.8 1.1-.7 9.4-5.1 18.4-9.8S73.5 205 74 204c1.8-3.3 1.1-6.8-1.6-8.9-1.5-1.2-3-2.1-3.4-2.1s-3.1 1.3-6.1 3zm184.5-2.2c-5 3.3-3.1 10.8 3.8 14.3 2.4 1.2 10.2 5.4 17.3 9.4 7.2 4 14 7.5 15.1 7.9 3.2 1 5.4-1.8 5.4-6.8 0-4.6.1-4.5-16.5-13.7-3.3-1.8-9-5.2-12.6-7.6-6.3-4.1-10.1-5.2-12.5-3.5zm-157 32.5c-1.9 1.1-24.2 23.7-27 27.4-4.4 5.9 1.8 13.5 7.7 9.5 4.9-3.3 28.9-29.3 28.9-31.3 0-2.2-4.2-6.9-6.2-6.9-.7.1-2.2.6-3.4 1.3z"/><use href="#B" x="158" y="166"/><path d="M118.3 249.8c-2.7 2.8-13.3 26.4-13.3 29.4 0 2.2 3.3 4.8 6.3 4.8 4 0 4.5-.6 15.1-20.9 2.5-4.7 3.1-11.1 1.4-13.3-.7-.9-2.5-2-4-2.4-2.3-.5-3.3-.1-5.5 2.4zm76-1.7c-2.4.9-4.3 3.8-4.3 6.5 0 2.2 9.6 22.8 12.4 26.6 3.6 5 10.6 2.7 10.6-3.6 0-1.4-1.5-5.7-3.4-9.4-1.8-3.7-4.1-9-5-11.8-2.3-7.1-5.9-10-10.3-8.3z"/><use href="#A" x="1" y="241"/><defs><path id="A" d="M156 17.8c-2.1 1.7-2.1 2.3-2.2 25.2v23.4l2.8 2.3c3.7 2.9 4 2.9 7.5-.7l3-3-.3-23.1c-.3-21.5-.4-23.2-2.2-24.5-2.7-1.9-5.9-1.8-8.6.4z" fill="#f0b73c"/><path id="B" d="M64.6 61.1c-4.8 3.8-3.7 6.4 7.9 19.9 17.2 19.9 18.6 21 23 16.6 4.7-4.7 4-6.2-11.3-23.7-4.1-4.6-8.6-9.9-10.1-11.7-3.3-3.7-5.8-4-9.5-1.1z" fill="#f0b73c"/></defs></svg>